<svg xmlns="http://www.w3.org/2000/svg" version="1.1" xmlns:xlink="http://www.w3.org/1999/xlink" xmlns:svgjs="http://svgjs.com/svgjs" width="512" height="512" x="0" y="0" viewBox="0 0 512 512" style="enable-background:new 0 0 512 512" xml:space="preserve" class=""><g><g><path d="m434.107 439.885c-22.64 21.932-52.979 34.115-84.5 34.115h-213.728c-9.646 0-19.092-2.909-26.982-8.459-65.861-46.321-108.897-122.905-108.897-209.541 0-141.228 114.361-255.745 255.529-256 140.898-.254 256.167 114.537 256.471 255.436.155 72.386-29.733 137.793-77.893 184.449z" fill="#8078bf" data-original="#8078bf" class=""></path><path d="m423 269c0 107.143-86.857 194-194 194s-194-86.857-194-194 86.857-194 194-194 194 86.857 194 194z" fill="#6a61b4" data-original="#6a61b4" class=""></path><path d="m434.43 439.572c-42.78 41.589-100.048 68.353-163.511 72h-29.838c-49.423-2.84-95.089-19.701-133.081-46.665v-10.335c0-8.284 6.716-15 15-15z" fill="#ea552d" data-original="#ea552d"></path><path d="m375 483.146c-31.408 16.52-66.668 26.704-104.081 28.854h-29.838c-21.151-1.215-41.614-4.999-61.081-11.043v-60.957h195z" fill="#d1462a" data-original="#d1462a"></path><path d="m374 440v43.242c-9.656 5.024-19.672 9.451-30 13.232v-56.474zm-194 60.53c9.763 3.031 19.776 5.493 30 7.348v-67.878h-30z" fill="#bc3f2a" data-original="#bc3f2a"></path><path d="m310.559 102.224c0 32.156-26.068 58.224-58.224 58.224s-58.224-26.068-58.224-58.224 26.067-58.224 58.223-58.224 58.225 26.068 58.225 58.224zm87.093-58.224c-32.156 0-58.224 26.068-58.224 58.224s26.068 58.224 58.224 58.224 58.224-26.068 58.224-58.224-26.068-58.224-58.224-58.224z" fill="#aba6d5" data-original="#aba6d5"></path><path d="m281.334 131.448c8.574 0 16.714-1.853 24.043-5.181-9.153 20.16-29.461 34.181-53.043 34.181-32.156 0-58.224-26.068-58.224-58.224 0-23.583 14.021-43.891 34.181-53.043-3.327 7.329-5.181 15.47-5.181 24.043 0 32.156 26.068 58.224 58.224 58.224zm145.318 0c-32.156 0-58.224-26.068-58.224-58.224 0-8.573 1.853-16.714 5.181-24.043-20.16 9.153-34.181 29.461-34.181 53.043 0 32.156 26.068 58.224 58.224 58.224 23.583 0 43.891-14.021 53.043-34.181-7.329 3.328-15.47 5.181-24.043 5.181z" fill="#958fca" data-original="#958fca" class=""></path><path d="m102.327 116.846c.444 1.517-.964 2.926-2.481 2.481l-17.606-5.157c-.367-.107-.757-.107-1.124 0l-17.606 5.157c-1.517.444-2.926-.964-2.482-2.481l5.157-17.606c.108-.367.108-.757 0-1.124l-5.157-17.606c-.444-1.517.964-2.926 2.482-2.482l17.606 5.157c.367.108.757.108 1.124 0l17.606-5.157c1.517-.444 2.926.964 2.481 2.482l-5.157 17.606c-.108.367-.108.757 0 1.124z" fill="#ffcd71" data-original="#ffcd71"></path><path d="m380 314.572v42c0 8.284-6.716 15-15 15h-290c-8.284 0-15-6.716-15-15v-42c0-8.284 6.716-15 15-15h290c8.284 0 15 6.716 15 15z" fill="#40c1fa" data-original="#40c1fa"></path><path d="m380 315v42c0 8.284-6.716 15-15 15h-218c-8.284 0-15-6.716-15-15v-42c0-8.284 6.716-15 15-15h218c8.284 0 15 6.716 15 15z" fill="#72d1fb" data-original="#72d1fb"></path><path d="m326 300v72h-142v-72z" fill="#07a9f0" data-original="#07a9f0"></path><path d="m199 372h-26v-72h26zm135-72h-26v72h26z" fill="#0691ce" data-original="#0691ce"></path><path d="m227.532 193.572c0 19.882-16.118 36-36 36h-96.532c-8.284 0-15-6.716-15-15v-42c0-8.284 6.716-15 15-15h96.532c19.882 0 36 16.118 36 36z" fill="#ffa90b" data-original="#ffa90b" class=""></path><path d="m438 172.572v42c0 8.284-6.716 15-15 15h-239.5c-19.882 0-36-16.118-36-36 0-19.882 16.118-36 36-36h20.627l10 9.083h122.386l7.915-9.083h78.572c8.284 0 15 6.716 15 15z" fill="#ffc14f" data-original="#ffc14f" class=""></path><path d="m328.489 157.572v72h-108.489v-72zm-196.553 0v72h-20v-72zm266.064 0v72h-20v-72z" fill="#ff9100" data-original="#ff9100" class=""></path><path d="m224.127 157.572v72h-20v-72zm120.301 0v72h-20v-72z" fill="#ffa90b" data-original="#ffa90b" class=""></path><path d="m52.09 369.572h382v72h-382c-8.284 0-15-6.716-15-15v-42c0-8.284 6.716-15 15-15zm91.91-140c-19.882 0-36 16.118-36 36 0 19.882 16.118 36 36 36h326c-5.909-23.636-5.909-48.364 0-72z" fill="#ffe7c0" data-original="#ffe7c0" class=""></path><path d="m397.651 39c-28.737 0-53.058 19.273-60.716 45.572h-23.884c-7.658-26.299-31.979-45.572-60.716-45.572-34.862 0-63.225 28.362-63.225 63.224 0 .786.015 1.569.043 2.348h-19.153c-30.327 0-55 24.673-55 55 0 2.761 2.238 5 5 5s5-2.239 5-5c0-24.813 20.187-45 45-45h20c.107 0 .213-.004.319-.01.927 4.667 2.369 9.15 4.265 13.389-23.125 2.658-40.245 16.51-40.245 33.705 0 2.761 2.238 5 5 5s5-2.239 5-5c0-12.509 16.028-23.164 35.59-24.099 11.374 16.816 30.621 27.892 52.407 27.892 21.814 0 41.083-11.105 52.451-27.959h40.413c11.368 16.854 30.637 27.959 52.451 27.959 34.862 0 63.225-28.362 63.225-63.224s-28.362-63.225-63.225-63.225zm0 10c29.349 0 53.225 23.876 53.225 53.224 0 9.137-2.315 17.744-6.388 25.265h-93.672c-4.073-7.521-6.388-16.128-6.388-25.265 0-29.348 23.876-53.224 53.223-53.224zm-62.763 45.572c-.304 2.509-.46 5.062-.46 7.652 0 .786.015 1.569.043 2.348h-18.956c.029-.779.043-1.562.043-2.348 0-2.589-.156-5.143-.46-7.652zm-82.553-45.572c29.348 0 53.224 23.876 53.224 53.224 0 9.137-2.315 17.744-6.388 25.265h-93.672c-4.073-7.521-6.388-16.128-6.388-25.265-.001-29.348 23.875-53.224 53.224-53.224zm0 106.448c-15.834 0-30.075-6.95-39.833-17.959h79.665c-9.758 11.009-23.999 17.959-39.832 17.959zm57.955-27.959c1.794-4.099 3.165-8.423 4.058-12.917h21.29c.893 4.494 2.265 8.818 4.058 12.917zm87.361 27.959c-15.833 0-30.074-6.95-39.832-17.959h79.665c-9.758 11.009-23.999 17.959-39.833 17.959z" fill="#453d83" data-original="#453d83" class=""></path><path d="m278.632 72.868c8.982 8.982 12.623 19.904 8.132 24.395s-15.413.85-24.395-8.132-12.623-19.904-8.132-24.395 15.413-.85 24.395 8.132zm122.604-8.132c-4.491 4.491-.85 15.413 8.132 24.395s19.904 12.623 24.395 8.132.85-15.413-8.132-24.395-19.904-12.623-24.395-8.132z" fill="#c1bde0" data-original="#c1bde0" class=""></path><path d="m103.509 143.246 4.501 9.668c.138.296.346.553.606.75l8.502 6.437c1.202.91 1.003 2.771-.363 3.408l-9.668 4.501c-.296.138-.553.346-.75.606l-6.437 8.502c-.91 1.202-2.771 1.003-3.408-.363l-4.501-9.668c-.138-.296-.346-.553-.606-.75l-8.502-6.437c-1.202-.91-1.003-2.771.363-3.408l9.668-4.501c.296-.138.553-.346.75-.606l6.437-8.502c.91-1.202 2.771-1.004 3.408.363zm-53.408 89.637-6.437 8.502c-.197.26-.455.468-.75.606l-9.668 4.501c-1.366.636-1.565 2.498-.363 3.408l8.502 6.437c.26.197.468.455.606.75l4.501 9.668c.636 1.366 2.498 1.565 3.408.363l6.437-8.502c.197-.26.455-.468.75-.606l9.668-4.501c1.366-.636 1.565-2.498.363-3.408l-8.502-6.437c-.26-.197-.468-.455-.606-.75l-4.501-9.668c-.637-1.367-2.498-1.565-3.408-.363z" fill="#ffe7c0" data-original="#ffe7c0" class=""></path><path d="m466.754 343.509-9.668 4.501c-.296.138-.553.346-.75.606l-6.437 8.502c-.91 1.202-2.771 1.003-3.407-.363l-4.501-9.668c-.138-.296-.346-.553-.606-.75l-8.502-6.437c-1.202-.91-1.003-2.771.363-3.408l9.668-4.501c.296-.138.553-.346.75-.606l6.437-8.502c.91-1.202 2.771-1.003 3.407.363l4.501 9.668c.138.296.346.553.606.75l8.502 6.437c1.202.91 1.003 2.771-.363 3.408z" fill="#453d83" data-original="#453d83" class=""></path><path d="m108 265.572c0-19.882 16.118-36 36-36h36c-11.79 0-22.256 5.668-28.823 14.428h108.199c2.761 0 5 2.239 5 5s-2.239 5-5 5h-113.476c-1.232 3.632-1.901 7.524-1.901 11.572 0 4.552.845 8.907 2.387 12.917h112.989c2.761 0 5 2.239 5 5s-2.239 5-5 5h-107.14c6.603 7.991 16.589 13.083 27.765 13.083h-36c-19.882 0-36-16.117-36-36zm319.09-4.583h-212.558c-2.761 0-5 2.239-5 5s2.239 5 5 5h212.558c2.761 0 5-2.239 5-5s-2.239-5-5-5zm-32.714 150.5h-120.532c-2.761 0-5 2.239-5 5s2.239 5 5 5h120.532c2.761 0 5-2.239 5-5s-2.238-5-5-5zm-200 0h-115.376v-12h193c2.761 0 5-2.239 5-5s-2.239-5-5-5h-193v-4.489c0-8.284 6.716-15 15-15h-41.91c-8.284 0-15 6.716-15 15v42c0 8.284 6.716 15 15 15h41.91c-8.284 0-15-6.716-15-15v-5.511h115.376c2.761 0 5-2.239 5-5s-2.238-5-5-5z" fill="#ffd399" data-original="#ffd399"></path><path d="m42.09 384.572v42c0 5.514 4.486 10 10 10h382c2.762 0 5 2.239 5 5s-2.238 5-5 5h-382c-11.028 0-20-8.972-20-20v-42c0-11.028 8.972-20 20-20h382c2.762 0 5 2.239 5 5s-2.238 5-5 5h-382c-5.514 0-10 4.486-10 10zm427.91-88h-326c-17.094 0-31-13.907-31-31s13.906-31 31-31h326c2.762 0 5-2.239 5-5s-2.238-5-5-5h-326c-22.607 0-41 18.393-41 41s18.393 41 41 41h326c2.762 0 5-2.239 5-5s-2.238-5-5-5z" fill="#453d83" data-original="#453d83" class=""></path><path d="m244 311.782v-50.793h66.351v50.793c0 18.322-14.853 33.175-33.175 33.175-18.323 0-33.176-14.853-33.176-33.175z" fill="#f77026" data-original="#f77026"></path><path d="m310.351 291.73v107.45c0 1.612-1.809 2.561-3.135 1.646l-30.216-20.837-29.856 20.809c-1.326.924-3.144-.025-3.144-1.641v-107.427c0 18.322 14.853 33.175 33.175 33.175 18.322 0 33.176-14.853 33.176-33.175z" fill="#ea552d" data-original="#ea552d"></path></g></g></svg>